<svg width="58" height="65" viewBox="0 0 58 65" fill="none" xmlns="http://www.w3.org/2000/svg">
<path d="M1 22.4202C1 12.3226 1 7.27384 4.07538 4.13692C7.15076 1 12.1005 1 22 1H36C45.8995 1 50.8492 1 53.9246 4.13692C57 7.27384 57 12.3226 57 22.4202V46.7951C57 56.3745 57 61.1642 54.045 62.6292C51.0899 64.0942 47.3976 61.135 40.0129 55.2166L37.6495 53.3225C33.4972 49.9947 31.421 48.3308 29 48.3308C26.579 48.3308 24.5028 49.9947 20.3505 53.3225L17.9871 55.2166C10.6024 61.135 6.91006 64.0942 3.95503 62.6292C1 61.1642 1 56.3745 1 46.7951V22.4202Z" stroke="#999999" stroke-width="2"/>
</svg>
