<svg width="23" height="24" viewBox="0 0 23 24" fill="none" xmlns="http://www.w3.org/2000/svg">
<path d="M2 9.21045C2 5.85169 2 4.17231 3.04343 3.12888C4.08686 2.08545 5.76624 2.08545 9.125 2.08545H13.875C17.2338 2.08545 18.9131 2.08545 19.9566 3.12888C21 4.17231 21 5.85169 21 9.21045V17.3182C21 20.5046 21 22.0978 19.9974 22.5851C18.9948 23.0724 17.742 22.0881 15.2365 20.1195L14.4346 19.4895C13.0258 18.3825 12.3214 17.8291 11.5 17.8291C10.6786 17.8291 9.97417 18.3825 8.56535 19.4895L7.76349 20.1195C5.25796 22.0881 4.0052 23.0724 3.0026 22.5851C2 22.0978 2 20.5046 2 17.3182V9.21045Z" fill="white" stroke="white" stroke-width="2.375"/>
</svg>
